<svg
	fill='white'
	viewBox="0 0 1024 1024"
	version="1.1"
	xmlns="http://www.w3.org/2000/svg"
>
	<path d="M401.976676 735.74897c-88.721671 0-172.124196-34.635845-234.843656-97.526197-62.724577-62.86784-97.271394-146.453537-97.271394-235.358379s34.546817-172.490539 97.276511-235.361449c62.715367-62.887282 146.117892-97.522104 234.838539-97.522104 88.719624 0 172.135452 34.633798 234.881518 97.522104 62.704111 62.875003 97.235578 146.4607 97.235578 235.361449 0 88.901773-34.530444 172.487469-97.231485 235.358379C574.112128 701.116195 490.6963 735.74897 401.976676 735.74897zM401.976676 121.204479c-75.012438 0-145.533584 29.290093-198.572568 82.474386-109.585861 109.834524-109.585861 288.539602-0.004093 398.36901 53.043077 53.188386 123.564223 82.47848 198.577684 82.47848 75.015507 0 145.553027-29.291117 198.620663-82.47848C710.126918 492.220514 710.126918 313.511343 600.593246 203.678866 547.530726 150.496619 476.992183 121.204479 401.976676 121.204479z"  /><path d="M932.538427 958.228017c-6.565533 0-13.129019-2.508123-18.132986-7.52437L606.670661 642.206504c-9.989515-10.014074-9.969049-26.231431 0.045025-36.220946s26.230408-9.969049 36.220946 0.045025l307.73478 308.497143c9.989515 10.014074 9.969049 26.231431-0.045025 36.220946C945.627537 955.735244 939.081447 958.228017 932.538427 958.228017z"  />
</svg>
