<svg
	fill='white'
	version="1.1"
	xmlns="http://www.w3.org/2000/svg"
	xmlns:xlink="http://www.w3.org/1999/xlink"
	x="0px"
	y="0px"
	viewBox="0 0 1000 1000"
	enable-background="new 0 0 1000 1000"
	xml:space="preserve"
>
<g><path d="M901.9,145.9h-74.1v25.2c0,53.6-58.3,97.1-111.9,97.1c-53.6,0-111.9-43.5-111.9-97.1v-25.2H393.8v25.2c0,53.6-58.3,97.1-111.9,97.1c-53.6,0-111.9-43.5-111.9-97.1v-25.2H98.1c-48.6,0-88.1,46.9-88.1,104.7v615.2c0,57.8,39.5,104.7,88.1,104.7h803.8c48.6,0,88.1-46.9,88.1-104.7V250.6C990,192.8,950.5,145.9,901.9,145.9z M930.6,838.1c0,40.3-33.6,73.1-75.1,73.1H139.9c-41.5,0-75.1-32.8-75.1-73.1V397.2c0-40.3,33.6-73.1,75.1-73.1h715.6c41.5,0,75.1,32.8,75.1,73.1V838.1z"/><path d="M720.4,29.4c-35,0-73.1,28.4-73.1,63.4v17.6V146v10.3c0,35,38.1,63.5,73.1,63.5s73.1-28.4,73.1-63.5v-10.4v-35.5V92.8C793.5,57.8,755.5,29.4,720.4,29.4z"/><path d="M281.8,29.4c-35,0-73.1,28.4-73.1,63.4v17.6V146v10.3c0,35,38.1,63.5,73.1,63.5c35,0,73.1-28.4,73.1-63.5v-10.4v-35.5V92.8C355,57.8,316.9,29.4,281.8,29.4z"/><path d="M251.4,399.5h-56.1c-34.2,0-61.9,27.7-61.9,61.9v56.1c0,34.2,27.7,61.9,61.9,61.9h56.1c34.2,0,61.9-27.7,61.9-61.9v-56.1C313.3,427.2,285.6,399.5,251.4,399.5z"/><path d="M516.3,399.5h-56.1c-34.2,0-61.9,27.7-61.9,61.9v56.1c0,34.2,27.7,61.9,61.9,61.9h56.1c34.2,0,61.9-27.7,61.9-61.9v-56.1C578.3,427.2,550.6,399.5,516.3,399.5z"/><path d="M781.3,399.5h-56.1c-34.2,0-61.9,27.7-61.9,61.9v56.1c0,34.2,27.7,61.9,61.9,61.9h56.1c34.2,0,61.9-27.7,61.9-61.9l0-56.1C843.2,427.2,815.5,399.5,781.3,399.5z"/><path d="M251.4,648.4h-56.1c-34.2,0-61.9,27.7-61.9,61.9v56.1c0,34.2,27.7,61.9,61.9,61.9h56.1c34.2,0,61.9-27.7,61.9-61.9v-56.1C313.3,676.1,285.6,648.4,251.4,648.4z"/><path d="M516.3,648.4h-56.1c-34.2,0-61.9,27.7-61.9,61.9v56.1c0,34.2,27.7,61.9,61.9,61.9h56.1c34.2,0,61.9-27.7,61.9-61.9v-56.1C578.3,676.1,550.6,648.4,516.3,648.4z"/><path d="M781.3,648.4h-56.1c-34.2,0-61.9,27.7-61.9,61.9v56.1c0,34.2,27.7,61.9,61.9,61.9h56.1c34.2,0,61.9-27.7,61.9-61.9v-56.1C843.2,676.1,815.5,648.4,781.3,648.4z"/></g>
</svg>
